<svg xmlns="http://www.w3.org/2000/svg" viewBox="0 0 64 64" role="img" aria-label="MIR: no es sueldo, son guardias">
  <defs>
    <linearGradient id="bg" x1="8" y1="6" x2="56" y2="58" gradientUnits="userSpaceOnUse">
      <stop stop-color="#10253b"/>
      <stop offset="0.62" stop-color="#17324d"/>
      <stop offset="1" stop-color="#185a45"/>
    </linearGradient>
    <linearGradient id="pulse" x1="13" y1="33" x2="51" y2="33" gradientUnits="userSpaceOnUse">
      <stop stop-color="#9be0cb"/>
      <stop offset="1" stop-color="#ffd5dc"/>
    </linearGradient>
  </defs>
  <rect width="64" height="64" rx="15" fill="url(#bg)"/>
  <path d="M18 24.5c0-5.2 4.1-9 9.1-9 2.9 0 5.3 1.3 6.9 3.4 1.6-2.1 4-3.4 6.9-3.4 5 0 9.1 3.8 9.1 9 0 9.4-11.5 16.7-16 19.4-4.5-2.7-16-10-16-19.4Z" fill="none" stroke="#f8fbfc" stroke-width="4" stroke-linecap="round" stroke-linejoin="round"/>
  <path d="M13 33h8l3.4-7 5.3 14 5-12 3.2 5H51" fill="none" stroke="url(#pulse)" stroke-width="4" stroke-linecap="round" stroke-linejoin="round"/>
  <path d="M18 51h28" stroke="#ffd5dc" stroke-width="4" stroke-linecap="round"/>
</svg>
