<svg xmlns="http://www.w3.org/2000/svg" width="1200" height="630" viewBox="0 0 1200 630" role="img" aria-label="No es sueldo. Son guardias.">
  <defs>
    <linearGradient id="background" x1="84" y1="48" x2="1078" y2="600" gradientUnits="userSpaceOnUse">
      <stop stop-color="#10253b"/>
      <stop offset="0.58" stop-color="#17324d"/>
      <stop offset="1" stop-color="#185a45"/>
    </linearGradient>
    <linearGradient id="accent" x1="107" y1="505" x2="1017" y2="505" gradientUnits="userSpaceOnUse">
      <stop stop-color="#9be0cb"/>
      <stop offset="0.58" stop-color="#ffd5dc"/>
      <stop offset="1" stop-color="#ffe2ba"/>
    </linearGradient>
    <filter id="shadow" x="-20%" y="-20%" width="140%" height="140%">
      <feDropShadow dx="0" dy="22" stdDeviation="24" flood-color="#07131f" flood-opacity="0.35"/>
    </filter>
  </defs>
  <rect width="1200" height="630" fill="url(#background)"/>
  <path d="M0 0h1200v630H0z" fill="none"/>
  <g opacity="0.16">
    <path d="M0 106h1200M0 212h1200M0 318h1200M0 424h1200M0 530h1200" stroke="#ffffff"/>
    <path d="M120 0v630M240 0v630M360 0v630M480 0v630M600 0v630M720 0v630M840 0v630M960 0v630M1080 0v630" stroke="#ffffff"/>
  </g>
  <circle cx="1008" cy="114" r="210" fill="#ffd5dc" opacity="0.12"/>
  <circle cx="172" cy="552" r="220" fill="#9be0cb" opacity="0.13"/>
  <g transform="translate(91 74)">
    <rect x="0" y="0" width="1018" height="482" rx="34" fill="#10253b" opacity="0.34" filter="url(#shadow)"/>
    <text x="52" y="78" fill="#9be0cb" font-family="Inter, Arial, sans-serif" font-size="30" font-weight="800" letter-spacing="0">MEDICINA SE DEFIENDE CON DATOS</text>
    <text x="52" y="205" fill="#f8fbfc" font-family="Inter, Arial, sans-serif" font-size="94" font-weight="900" letter-spacing="0">No es sueldo.</text>
    <text x="52" y="305" fill="#f8fbfc" font-family="Inter, Arial, sans-serif" font-size="94" font-weight="900" letter-spacing="0">Son guardias.</text>
    <text x="56" y="376" fill="#dbe4ea" font-family="Inter, Arial, sans-serif" font-size="34" font-weight="600" letter-spacing="0">Retribuciones MIR, horas reales y Estatuto Marco</text>
    <rect x="56" y="425" width="268" height="16" rx="8" fill="#28745b"/>
    <rect x="324" y="425" width="214" height="16" rx="8" fill="#b73545"/>
    <rect x="538" y="425" width="156" height="16" rx="8" fill="#b26a20"/>
    <text x="731" y="441" fill="#ffe2ba" font-family="Inter, Arial, sans-serif" font-size="28" font-weight="800">242,5 h/mes</text>
  </g>
  <path d="M101 590h996" stroke="url(#accent)" stroke-width="10" stroke-linecap="round"/>
</svg>
