<svg xmlns="http://www.w3.org/2000/svg" width="1200" height="630" viewBox="0 0 1200 630" role="img" aria-label="Logo MIR guardias">
  <defs>
    <linearGradient id="background" x1="148" y1="58" x2="1040" y2="600" gradientUnits="userSpaceOnUse">
      <stop stop-color="#10253b"/>
      <stop offset="0.58" stop-color="#17324d"/>
      <stop offset="1" stop-color="#185a45"/>
    </linearGradient>
    <linearGradient id="pulse" x1="332" y1="322" x2="868" y2="322" gradientUnits="userSpaceOnUse">
      <stop stop-color="#9be0cb"/>
      <stop offset="0.58" stop-color="#d7efe7"/>
      <stop offset="1" stop-color="#ffd5dc"/>
    </linearGradient>
    <radialGradient id="halo" cx="0" cy="0" r="1" gradientUnits="userSpaceOnUse" gradientTransform="translate(600 315) rotate(90) scale(250 360)">
      <stop stop-color="#ffffff" stop-opacity="0.22"/>
      <stop offset="1" stop-color="#ffffff" stop-opacity="0"/>
    </radialGradient>
    <filter id="shadow" x="-20%" y="-20%" width="140%" height="140%">
      <feDropShadow dx="0" dy="26" stdDeviation="28" flood-color="#07131f" flood-opacity="0.38"/>
    </filter>
  </defs>
  <rect width="1200" height="630" fill="url(#background)"/>
  <g opacity="0.12">
    <path d="M0 105h1200M0 210h1200M0 315h1200M0 420h1200M0 525h1200" stroke="#ffffff"/>
    <path d="M120 0v630M240 0v630M360 0v630M480 0v630M600 0v630M720 0v630M840 0v630M960 0v630M1080 0v630" stroke="#ffffff"/>
  </g>
  <circle cx="600" cy="315" r="360" fill="url(#halo)"/>
  <g filter="url(#shadow)">
    <rect x="380" y="95" width="440" height="440" rx="112" fill="#10253b" opacity="0.78"/>
    <path d="M440 250c0-55 43-95 96-95 30 0 56 13 74 35 18-22 44-35 74-35 53 0 96 40 96 95 0 99-122 176-170 205-48-29-170-106-170-205Z" fill="none" stroke="#f8fbfc" stroke-width="34" stroke-linecap="round" stroke-linejoin="round"/>
    <path d="M332 326h109l43-89 70 185 68-157 43 61h203" fill="none" stroke="url(#pulse)" stroke-width="34" stroke-linecap="round" stroke-linejoin="round"/>
    <path d="M450 490h300" stroke="#ffd5dc" stroke-width="34" stroke-linecap="round"/>
  </g>
</svg>
